<svg width="512" height="512" viewBox="0 0 512 512" fill="none" xmlns="http://www.w3.org/2000/svg">
  <rect width="512" height="512" rx="128" fill="#0a0e14"/>
  <g transform="translate(96, 96)">
    <rect x="0" y="0" width="96" height="96" rx="12" fill="#1a1f2e" stroke="#3b82f6" stroke-width="3"/>
    <rect x="112" y="0" width="96" height="96" rx="12" fill="#1a1f2e" stroke="#3b82f6" stroke-width="3"/>
    <rect x="224" y="0" width="96" height="96" rx="12" fill="#1a1f2e" stroke="#3b82f6" stroke-width="3"/>
    <rect x="0" y="112" width="96" height="96" rx="12" fill="#1a1f2e" stroke="#10b981" stroke-width="3"/>
    <rect x="112" y="112" width="96" height="96" rx="12" fill="#1a1f2e" stroke="#10b981" stroke-width="3"/>
    <rect x="224" y="112" width="96" height="96" rx="12" fill="#1a1f2e" stroke="#f59e0b" stroke-width="3"/>
    <rect x="0" y="224" width="96" height="96" rx="12" fill="#1a1f2e" stroke="#6b7280" stroke-width="3"/>
    <rect x="112" y="224" width="96" height="96" rx="12" fill="#1a1f2e" stroke="#6b7280" stroke-width="3"/>
    <rect x="224" y="224" width="96" height="96" rx="12" fill="#1a1f2e" stroke="#6b7280" stroke-width="3"/>
    <circle cx="48" cy="48" r="16" fill="#3b82f6" opacity="0.8"/>
    <circle cx="160" cy="48" r="16" fill="#3b82f6" opacity="0.6"/>
    <circle cx="272" cy="48" r="16" fill="#3b82f6" opacity="0.4"/>
    <circle cx="48" cy="160" r="16" fill="#10b981" opacity="0.8"/>
    <circle cx="160" cy="160" r="16" fill="#10b981" opacity="0.8"/>
    <circle cx="272" cy="160" r="16" fill="#f59e0b" opacity="0.8"/>
  </g>
</svg>
